<svg id="圖層_12" data-name="圖層 12" xmlns="http://www.w3.org/2000/svg" viewBox="0 0 1597 281.55" preserveAspectRatio="none"><defs><style>.cls-1{fill:#f3fefd;}.cls-2{fill:#a7d1e0;}</style></defs><path class="cls-1" d="M190,646V425.6L211,399H1754.53l11.18,9c2.7,9.87,7.62,19.73,7.72,29.63.7,65.83.38,131.67.31,197.51a43,43,0,0,1-1.16,11.23c-5,18.33-16.82,26.28-38.69,26.28H230c-3.82,0-7.64-.09-11.46-.13C206.94,669.29,199.21,662,195,650.72,194.27,648.79,191.71,647.53,190,646Z" transform="translate(-190 -399)"/><path class="cls-2" d="M218.57,672.53c3.82,0,7.64.13,11.46.13H1733.89c21.87,0,33.71-7.95,38.69-26.28a43,43,0,0,0,1.16-11.23c.07-65.84.39-131.68-.31-197.51-.1-9.9-5-19.76-7.71-29.63,11.1,3.19,15.29,13.16,21.28,21.38v228c-8.9,19.6-24.72,23.21-45.1,23.19q-749.67-.69-1499.34-.36c-2.86,0-6,.78-8.53-.17C228.69,678,223.7,675.08,218.57,672.53Z" transform="translate(-190 -399)"/></svg>