<svg id="圖層_11" data-name="圖層 11" xmlns="http://www.w3.org/2000/svg" viewBox="0 0 944 927.23"><defs><style>.cls-1{fill:#bd7c5e;}.cls-2{fill:#f8b191;}.cls-3{fill:#2f4858;}.cls-4{fill:#816c8f;}</style></defs><path class="cls-1" d="M1422,507.7v50.65a10.08,10.08,0,0,0-.83,2.21c-2.34,17.48-4,35.09-7.08,52.42-9.2,51.06-25.28,99.69-51.93,144.59-15.11,25.45-30.79,50.37-50.69,72.51-16.35,18.18-32.6,36.36-51.67,51.85-16.2,13.16-32,26.88-50.11,37.38-16.92,9.79-33.73,19.84-51.1,28.78-32,16.5-66,27.84-101.06,35.93a475.77,475.77,0,0,1-75.46,11.13,481.57,481.57,0,0,1-177.84-21.38A453.49,453.49,0,0,1,701.61,926.9c-17-10.5-33.67-21.77-49.07-34.43-17.95-14.75-34.85-30.89-51.3-47.33-19-19-34.44-41.19-49.54-63.35-21.81-32-37.21-67.43-50.19-103.72-12.46-34.86-19.12-71.13-22-108.07-.32-4.18-1-8.34-1.54-12.51V507.7a12.62,12.62,0,0,0,.82-2.67c3-42.73,10.21-84.53,25.58-124.83,13.67-35.85,29.09-70.61,51.34-102.14,15.66-22.2,31.49-44.15,50.93-63.34,16.17-16,31.86-32.47,50.64-45.49,17-11.79,33.72-24.12,51.46-34.69a460,460,0,0,1,51.12-25.95,541.83,541.83,0,0,1,51.36-19C844,79,877.79,73.11,912.14,70.55c4.47-.34,8.92-1,13.38-1.55h49a15.3,15.3,0,0,0,3.11.8,478.69,478.69,0,0,1,85.54,12.64,450.27,450.27,0,0,1,101.45,37.3,510,510,0,0,1,52.74,31c16.65,11.23,33,23.35,47.68,37,18.62,17.21,36.08,35.79,52.94,54.75,19,21.4,33.83,46,47.88,70.79,26.31,46.43,41.1,97,50.82,149.19,2.07,11.06,2.6,22.41,3.88,33.62C1421,500,1421.5,503.83,1422,507.7ZM512.31,532.56c1.51,18.8,2.18,37.7,4.68,56.36,6.07,45.33,18.14,88.91,39.34,129.79,14.51,28,30,55.23,50.45,79.45,16.54,19.57,33.29,38.81,53.11,55.27,15.86,13.16,31.31,26.8,49.24,37.15,16.7,9.64,33.32,19.51,50.52,28.2,31.85,16.07,65.59,26.82,100.55,33.93a450.38,450.38,0,0,0,202-5.12,419.83,419.83,0,0,0,103.6-41.75,449.27,449.27,0,0,0,51.88-34.19c16.95-13,32.68-27.79,48.19-42.58,19.54-18.62,35.35-40.51,50.64-62.59,21.8-31.48,37.36-66.32,49.55-102.39,18.92-56,24.5-113.9,18.79-172.7-3.26-33.63-9.86-66.55-21.92-98.39-13.53-35.71-29.08-70.18-51.61-101.29-15.63-21.59-31.63-42.76-51.14-61.08-16.16-15.18-31.87-30.87-50.62-43-16.56-10.68-33-21.66-50.1-31.4-32.14-18.3-66.6-31-102.46-39.9a416,416,0,0,0-95.9-12.78c-19.27-.24-38.61.79-57.83,2.37-34,2.8-66.92,10.67-99.07,21.76a420.62,420.62,0,0,0-101.38,50.8c-17.52,12-34,25.66-50.22,39.46-19,16.17-34.94,35.4-50.64,54.68-20.33,25-36.19,52.95-49.85,81.9C525.56,410.76,513.4,470.39,512.31,532.56Z" transform="translate(-478 -69)"/><path class="cls-2" d="M512.31,532.56c1.09-62.17,13.25-121.8,39.75-178,13.66-28.95,29.52-56.92,49.85-81.9,15.7-19.28,31.64-38.51,50.64-54.68,16.2-13.8,32.7-27.43,50.22-39.46a420.62,420.62,0,0,1,101.38-50.8c32.15-11.09,65.12-19,99.07-21.76,19.22-1.58,38.56-2.61,57.83-2.37a416,416,0,0,1,95.9,12.78c35.86,8.94,70.32,21.6,102.46,39.9,17.11,9.74,33.54,20.72,50.1,31.4,18.75,12.09,34.46,27.78,50.62,43,19.51,18.32,35.51,39.49,51.14,61.08,22.53,31.11,38.08,65.58,51.61,101.29,12.06,31.84,18.66,64.76,21.92,98.39,5.71,58.8.13,116.67-18.79,172.7-12.19,36.07-27.75,70.91-49.55,102.39-15.29,22.08-31.1,44-50.64,62.59-15.51,14.79-31.24,29.53-48.19,42.58a449.27,449.27,0,0,1-51.88,34.19,419.83,419.83,0,0,1-103.6,41.75,450.38,450.38,0,0,1-202,5.12c-35-7.11-68.7-17.86-100.55-33.93-17.2-8.69-33.82-18.56-50.52-28.2-17.93-10.35-33.38-24-49.24-37.15-19.82-16.46-36.57-35.7-53.11-55.27-20.46-24.22-35.94-51.45-50.45-79.45-21.2-40.88-33.27-84.46-39.34-129.79C514.49,570.26,513.82,551.36,512.31,532.56Zm411.22-183c3.08,6.63,8.12,11.58,14.06,15.55,11.37,7.62,23.85,10.17,37.54,8.75,16-1.66,28.84-9.06,37.8-21.74,10.35-14.65,10.39-31.14,3.38-47.35C1012.9,296.92,1006.79,291,999,287c-3.34-4.07-6.28-8.57-10.09-12.14-12-11.25-26.85-14.27-42.61-12.47-20.34,2.31-34.89,13.19-42.81,32.09-3.26,7.78-3.13,16.32-1.33,24.5,1.12,5.07,2.59,10.57,5.61,14.6C912.24,339.5,918.21,344.31,923.53,349.6Zm-52.1,111.83v15.14c2.93.14,5.34.15,7.73.36q18.44,1.62,36.87,3.3a30.24,30.24,0,0,1,.44,3.39c.46,20.41,1.31,40.83,1.24,61.25-.22,63.58-.83,127.17-1.12,190.76,0,4.06-1.27,5.21-5.17,5.69-16.43,2-32.8,4.4-49.19,6.66v22.47h15.19v15.91H1059.2v-22.5l-15-2V748.16l-33.66-5.38c-.57-2.53-1.59-5-1.63-7.58-.4-25.26-.75-50.52-.9-75.79q-.21-35.16,0-70.33c.16-27.41.31-54.82.9-82.22.48-22.13-1.86-44.32,1.56-66.39.59-3.77-.22-7.74.17-11.56.44-4.39-.88-7.28-4.72-9.72s-7.43-5-12.21-2.49c.08-5.85,1.35-11.89-5.94-15.21-2.77-1.27-4.83-2.22-7.86-1.16-6.32,2.22-12.76,4.1-19.18,6.06L856,438.29v21.36Z" transform="translate(-478 -69)"/><path class="cls-3" d="M877.42,770.45H862.23V748c16.39-2.26,32.76-4.65,49.19-6.66,3.9-.48,5.15-1.63,5.17-5.69.29-63.59.9-127.18,1.12-190.76.07-20.42-.78-40.84-1.24-61.25a30.24,30.24,0,0,0-.44-3.39V465.29l-44.6-3.86L856,459.65V438.29l104.73-31.9c6.42-2,12.86-3.84,19.18-6.06,3-1.06,5.09-.11,7.86,1.16,7.29,3.32,6,9.36,5.94,15.21-.4,26.72-1.14,53.44-1.12,80.17,0,69.78.38,139.57.66,209.35q.07,15.64.69,31.29a4.44,4.44,0,0,0,2.63,3.31c4.6.94,9.3,1.35,14,2l33.66,5.38v22.1H882.55C880.84,770.27,879.13,770.39,877.42,770.45Z" transform="translate(-478 -69)"/><path class="cls-3" d="M923.53,349.6c-5.32-5.29-11.29-10.1-15.74-16.05-3-4-4.49-9.53-5.61-14.6-1.8-8.18-1.93-16.72,1.33-24.5,7.92-18.9,22.47-29.78,42.81-32.09,15.76-1.8,30.59,1.22,42.61,12.47,3.81,3.57,6.75,8.07,10.09,12.14.38.92.73,1.85,1.12,2.77,12.13,28.49-3.85,59.9-34.1,66.54A56.92,56.92,0,0,1,923.53,349.6Z" transform="translate(-478 -69)"/><path class="cls-4" d="M1010.54,742.78c-4.67-.61-9.37-1-14-2a4.44,4.44,0,0,1-2.63-3.31q-.6-15.64-.69-31.29c-.28-69.78-.63-139.57-.66-209.35,0-26.73.72-53.45,1.12-80.17,4.78-2.52,8.3,0,12.21,2.49s5.16,5.33,4.72,9.72c-.39,3.82.42,7.79-.17,11.56-3.42,22.07-1.08,44.26-1.56,66.39-.59,27.4-.74,54.81-.9,82.22q-.21,35.16,0,70.33c.15,25.27.5,50.53.9,75.79C1009,737.74,1010,740.25,1010.54,742.78Z" transform="translate(-478 -69)"/><path class="cls-4" d="M877.42,770.45c1.71-.06,3.42-.18,5.13-.18H1044.2v-8.44l15,2v22.5H877.42Z" transform="translate(-478 -69)"/><path class="cls-4" d="M923.53,349.6A56.92,56.92,0,0,0,966,356.28c30.25-6.64,46.23-38,34.1-66.54-.39-.92-.74-1.85-1.12-2.77,7.77,4,13.88,9.95,17.29,17.84,7,16.21,7,32.7-3.38,47.35-9,12.68-21.78,20.08-37.8,21.74-13.69,1.42-26.17-1.13-37.54-8.75C931.65,361.18,926.61,356.23,923.53,349.6Z" transform="translate(-478 -69)"/><path class="cls-4" d="M871.43,461.43l44.6,3.86v14.94q-18.43-1.65-36.87-3.3c-2.39-.21-4.8-.22-7.73-.36Z" transform="translate(-478 -69)"/></svg>